<svg fill="none" height="38" viewBox="0 0 38 38" width="38" xmlns="http://www.w3.org/2000/svg">
    <path
        d="M29.1111 6H8.88889C7.2934 6 6 7.2934 6 8.88889V29.1111C6 30.7066 7.2934 32 8.88889 32H29.1111C30.7066 32 32 30.7066 32 29.1111V8.88889C32 7.2934 30.7066 6 29.1111 6Z"
        fill="#8AA8C3" stroke="#8AA8C3" stroke-linecap="round" stroke-linejoin="round"
        stroke-width="2" />
    <path
        d="M13.4584 15.8333C14.7701 15.8333 15.8334 14.7699 15.8334 13.4583C15.8334 12.1466 14.7701 11.0833 13.4584 11.0833C12.1467 11.0833 11.0834 12.1466 11.0834 13.4583C11.0834 14.7699 12.1467 15.8333 13.4584 15.8333Z"
        fill="#E6EEF5" stroke="#E6EEF5" stroke-linecap="round" stroke-linejoin="round"
        stroke-width="2" />
    <path
        d="M34.3698 26.2841L35.0769 26.9912L36.4911 25.577L35.784 24.8699L34.3698 26.2841ZM25.3333 15.8333L26.0405 15.1262C25.8513 14.937 25.5944 14.8316 25.3269 14.8333C25.0595 14.835 24.8039 14.9438 24.6172 15.1353L25.3333 15.8333ZM5.86079 34.379C5.4753 34.7745 5.48342 35.4076 5.87892 35.7931C6.27442 36.1786 6.90753 36.1704 7.29302 35.7749L5.86079 34.379ZM35.784 24.8699L26.0405 15.1262L24.6262 16.5404L34.3698 26.2841L35.784 24.8699ZM24.6172 15.1353L5.86079 34.379L7.29302 35.7749L26.0495 16.5312L24.6172 15.1353Z"
        fill="#E6EEF5" />
</svg>
