<svg fill="none" height="81" viewBox="0 0 81 81" width="81" xmlns="http://www.w3.org/2000/svg">
    <g opacity="0.1">
        <path
            d="M37.125 64.125C52.0367 64.125 64.125 52.0367 64.125 37.125C64.125 22.2133 52.0367 10.125 37.125 10.125C22.2133 10.125 10.125 22.2133 10.125 37.125C10.125 52.0367 22.2133 64.125 37.125 64.125Z"
            fill="#004077" stroke="#004077" stroke-linecap="round" stroke-linejoin="round"
            stroke-width="2" />
        <path d="M70.875 70.8751L56.1937 56.1938" stroke="#004077" stroke-linecap="round"
            stroke-linejoin="round" stroke-width="6" />
        <path
            d="M31.034 33.0705C30.4686 33.0705 30.0069 32.5994 30.1038 32.0424C30.3374 30.6989 30.9486 29.5799 31.9373 28.6854C33.1784 27.5618 34.8937 27 37.0832 27C39.1416 27 40.8065 27.527 42.0778 28.581C43.3593 29.635 44 30.9873 44 32.638C44 34.7758 42.9305 36.4712 40.7914 37.7241C39.8025 38.2908 39.1315 38.8129 38.7784 39.2902C38.4252 39.7675 38.2486 40.379 38.2486 41.1247C38.2486 41.6025 37.8613 41.9898 37.3836 41.9898H35.7231C35.1764 41.9898 34.731 41.5508 34.7232 41.0041L34.7222 40.9308C34.6515 39.847 34.8382 38.9372 35.2822 38.2014C35.7362 37.4655 36.493 36.7894 37.5524 36.1729C38.5009 35.6061 39.1568 35.0841 39.52 34.6068C39.8832 34.1195 40.0649 33.508 40.0649 32.7722C40.0649 31.9767 39.7723 31.3254 39.187 30.8183C38.6018 30.3012 37.835 30.0427 36.8865 30.0427C35.9178 30.0427 35.1359 30.3162 34.5405 30.8631C34.158 31.2144 33.8859 31.6438 33.7242 32.1512C33.5642 32.6532 33.147 33.0705 32.6201 33.0705H31.034ZM38.0973 48.3885C37.6735 48.7962 37.1539 49 36.5384 49C35.9229 49 35.3982 48.7962 34.9643 48.3885C34.5405 47.9708 34.3286 47.4687 34.3286 46.882C34.3286 46.2954 34.5405 45.7982 34.9643 45.3905C35.3982 44.9828 35.9229 44.779 36.5384 44.779C37.1539 44.779 37.6735 44.9828 38.0973 45.3905C38.5211 45.7982 38.733 46.2954 38.733 46.882C38.733 47.4687 38.5211 47.9708 38.0973 48.3885Z"
            fill="white" />
    </g>
</svg>
