<svg fill="none" height="28" width="28" xmlns="http://www.w3.org/2000/svg">
    <path d="M7.5 5.375h13.875a3 3 0 0 1 3 3v13a3 3 0 0 1-3 3H7.5a3 3 0 0 1-3-3v-13a3 3 0 0 1 3-3Z"
        stroke="#fff" stroke-width="2" />
    <rect fill="#fff" height="1.75" rx=".875" width="2.625" x="7.875" y="18.375" />
    <rect fill="#fff" height="1.75" rx=".875" width="2.625" x="7.875" y="14" />
    <rect fill="#fff" height="1.75" rx=".875" width="2.625" x="7.875" y="9.625" />
    <rect fill="#fff" height="1.75" rx=".875" width="8.75" x="12.25" y="18.375" />
    <rect fill="#fff" height="1.75" rx=".875" width="8.75" x="12.25" y="14" />
    <rect fill="#fff" height="1.75" rx=".875" width="8.75" x="12.25" y="9.625" />
</svg>