<svg fill="none" height="48" viewBox="0 0 58 48" width="58" xmlns="http://www.w3.org/2000/svg">
    <path
        d="M30.8899 27V19.5M30.8899 19.5V12.1231C30.8899 12.0413 30.8804 11.9607 30.8544 11.8832C30.7106 11.4555 30.0961 10 28.3899 10C26.6838 10 26.0692 11.4555 25.9255 11.8832C25.8994 11.9607 25.8899 12.0413 25.8899 12.1231V31.4931C25.8899 31.6802 25.6637 31.7739 25.5314 31.6416L22.9283 29.0392C22.9022 29.0131 22.8788 28.987 22.8548 28.9589C22.5828 28.6406 20.7359 26.6149 18.8889 28C16.953 29.4518 18.7647 31.8403 18.8831 31.9924C18.8872 31.9976 18.8913 32.0025 18.8955 32.0076L23.8862 37.9964C23.8882 37.9988 23.8886 37.9992 23.8906 38.0017C23.9533 38.0783 26.1761 40.7869 29.3892 44C32.3892 47 38.8899 47.5 42.3899 44C45.8899 40.5 45.8899 37 45.8899 37C45.8899 37 45.8899 37 45.8899 37V24.1231C45.8899 24.0413 45.8804 23.9607 45.8544 23.8832C45.7106 23.4555 45.0961 22 43.3899 22C41.3899 22 40.8899 24 40.8899 24M30.8899 19.5C30.8899 19.5 31.3899 17.5 33.3899 17.5C35.0961 17.5 35.7106 18.9555 35.8544 19.3832C35.8804 19.4607 35.8899 19.5413 35.8899 19.6231V22M35.8899 27V22M35.8899 22C35.8899 22 36.3899 20 38.3899 20C40.0961 20 40.7106 21.4555 40.8544 21.8832C40.8804 21.9607 40.8899 22.0413 40.8899 22.1231V24M40.8899 28V24"
        stroke="#004077" stroke-linecap="round" stroke-width="2" />
    <path d="M36 12C36 8.13401 32.6421 5 28.5 5C24.3579 5 21 8.13401 21 12" stroke="#004077"
        stroke-linecap="round" stroke-width="2" />
    <path d="M40 12C40 5.92487 34.8513 1 28.5 1C22.1487 1 17 5.92487 17 12" stroke="#004077"
        stroke-linecap="round" stroke-width="2" />
    <line stroke="#004077" stroke-linecap="round" stroke-width="2" x1="55.04" x2="48.355"
        y1="8.86426" y2="8.86426" />
    <path d="M52.1802 12.6892L56.0402 8.82921L52.1802 4.9692" stroke="#004077"
        stroke-linecap="round" stroke-width="2" />
    <line stroke="#004077" stroke-linecap="round" stroke-width="2"
        transform="matrix(1 8.74228e-08 8.74228e-08 -1 2.16504 7.77783)" x1="1" x2="8.03083" y1="-1"
        y2="-1" />
    <path d="M5.85986 12.6892L1.99986 8.82921L5.85986 4.9692" stroke="#004077"
        stroke-linecap="round" stroke-width="2" />
</svg>
