<svg fill="none" height="47" viewBox="0 0 48 47" width="48" xmlns="http://www.w3.org/2000/svg">
    <path
        d="M31.11 26.7325V19.3232M31.11 19.3232V12.0434C31.11 11.9575 31.0994 11.8723 31.0705 11.7915C30.9164 11.3601 30.2747 9.93823 28.5105 9.93823C26.7463 9.93823 26.1046 11.3602 25.9505 11.7915C25.9216 11.8723 25.911 11.9575 25.911 12.0434V31.1828C25.911 31.3673 25.6901 31.4622 25.5564 31.3351L22.8311 28.7466C22.8042 28.7211 22.7801 28.6955 22.7553 28.6679C22.4731 28.3541 20.5523 26.3517 18.6313 27.7204C16.6184 29.1545 18.5021 31.5141 18.6253 31.6644C18.6296 31.6696 18.6338 31.6745 18.6382 31.6795L23.8275 37.5958C23.8296 37.5981 23.83 37.5986 23.832 37.601C23.8972 37.6766 26.2085 40.3525 29.5495 43.5267C32.669 46.4904 39.4284 46.9843 43.0677 43.5267C46.707 40.0691 46.707 36.6114 46.707 36.6114C46.707 36.6114 46.707 36.6114 46.707 36.6114V23.8981C46.707 23.8123 46.6964 23.7271 46.6675 23.6462C46.5134 23.2149 45.8717 21.793 44.1075 21.793C42.0279 21.793 41.508 23.7688 41.508 23.7688M31.11 19.3232C31.11 19.3232 31.6299 17.3475 33.7095 17.3475C35.4737 17.3475 36.1154 18.7694 36.2695 19.2007C36.2984 19.2816 36.309 19.3667 36.309 19.4526V21.793M36.309 26.7325V21.793M36.309 21.793C36.309 21.793 36.8289 19.8172 38.9085 19.8172C40.6727 19.8172 41.3144 21.2391 41.4685 21.6704C41.4974 21.7513 41.508 21.8365 41.508 21.9223V23.7688M41.508 27.7204V23.7688"
        stroke="#004077" stroke-linecap="round" stroke-width="2" />
    <path
        d="M23.0481 23.8915C21.149 21.5638 17.5794 21.3332 15.0752 23.3763C12.5711 25.4194 12.0805 28.9626 13.9797 31.2903"
        stroke="#004077" stroke-linecap="round" stroke-width="2" />
    <line stroke="#004077" stroke-linecap="round" stroke-width="2" x1="14.587" x2="10.7552"
        y1="3.05204" y2="8.52987" />
    <path d="M16.082 7.58789L15.1316 2.2124L9.7561 3.16284" stroke="#004077" stroke-linecap="round"
        stroke-width="2" />
    <line stroke="#004077" stroke-linecap="round" stroke-width="2"
        transform="matrix(0.573193 -0.81942 -0.81942 -0.573193 2.396 18.5847)" x1="1" x2="8.03083"
        y1="-1" y2="-1" />
    <path d="M8.53857 18.3723L3.16308 19.3228L2.21264 13.9473" stroke="#004077"
        stroke-linecap="round" stroke-width="2" />
    <path
        d="M34.707 11.9385C34.707 8.62477 31.7969 5.93848 28.207 5.93848C24.6172 5.93848 21.707 8.62477 21.707 11.9385"
        stroke="#004077" stroke-linecap="round" stroke-width="2" />
</svg>
